<?xml version="1.0" encoding="UTF-8"?>
<svg width="92" height="32" viewBox="0 0 92 32" fill="none" xmlns="http://www.w3.org/2000/svg">
  <path d="M26.5 16C26.5 21.799 21.799 26.5 16 26.5C10.201 26.5 5.5 21.799 5.5 16C5.5 10.201 10.201 5.5 16 5.5C21.799 5.5 26.5 10.201 26.5 16Z" stroke="#4F46E5" stroke-width="3"/>
  <path d="M16 0L19.0979 4.90983L24.7553 5.24472L20.1176 8.78231L21.2764 14.3444L16 11.4L10.7236 14.3444L11.8824 8.78231L7.24472 5.24472L12.9021 4.90983L16 0Z" fill="#4F46E5"/>
  <path d="M40.296 23V9.2H44.52V19.496H51.48V23H40.296ZM61.5756 23L60.6036 20.216H54.7836L53.8116 23H49.2996L55.0916 9.2H60.3676L66.1596 23H61.5756ZM55.7796 17.048H59.6076L57.6936 11.672L55.7796 17.048ZM68.5982 23V9.2H77.3582C78.4102 9.2 79.3182 9.4 80.0822 9.8C80.8462 10.2 81.4222 10.76 81.8102 11.48C82.1982 12.2 82.3922 13.024 82.3922 13.952C82.3922 14.624 82.2702 15.224 82.0262 15.752C81.7822 16.264 81.4622 16.696 81.0662 17.048C80.6702 17.4 80.2502 17.664 79.8062 17.84L82.8702 23H77.9582L75.3982 18.464H72.8222V23H68.5982ZM72.8222 15.032H76.9742C77.4022 15.032 77.7502 14.912 78.0182 14.672C78.2862 14.432 78.4202 14.104 78.4202 13.688C78.4202 13.288 78.2862 12.968 78.0182 12.728C77.7502 12.488 77.4022 12.368 76.9742 12.368H72.8222V15.032Z" fill="#1F2937"/>
</svg>